<?xml version="1.0" encoding="UTF-8"?>
<!DOCTYPE svg PUBLIC "-//W3C//DTD SVG 1.1//EN" "http://www.w3.org/Graphics/SVG/1.1/DTD/svg11.dtd">
<svg xmlns="http://www.w3.org/2000/svg" version="1.1" width="300px" height="120px" style="shape-rendering:geometricPrecision; text-rendering:geometricPrecision; image-rendering:optimizeQuality; fill-rule:evenodd; clip-rule:evenodd" xmlns:xlink="http://www.w3.org/1999/xlink">
<g><path style="opacity:1" fill="#fdfdfc" d="M -0.5,-0.5 C 51.8333,-0.5 104.167,-0.5 156.5,-0.5C 155.177,2.80574 154.177,6.13907 153.5,9.5C 153.784,7.58533 153.451,5.91866 152.5,4.5C 144.01,3.34305 135.343,3.17639 126.5,4C 126,4.5 125.5,5 125,5.5C 124.502,8.81677 124.335,12.1501 124.5,15.5C 124.5,18.1667 124.5,20.8333 124.5,23.5C 123.527,25.9479 123.194,28.6146 123.5,31.5C 119.5,31.5 115.5,31.5 111.5,31.5C 113.248,30.2106 113.581,28.7106 112.5,27C 104.959,24.8631 99.126,27.0298 95,33.5C 93.1927,37.7561 91.6927,42.0894 90.5,46.5C 84.1667,46.5 77.8333,46.5 71.5,46.5C 72.1667,45.1667 73.1667,44.1667 74.5,43.5C 75.9288,39.7734 74.5954,37.1067 70.5,35.5C 72.1667,34.3333 73.8333,33.1667 75.5,32C 74.1011,31.4054 72.7678,31.5721 71.5,32.5C 69.8662,32.032 68.6995,31.032 68,29.5C 67.6667,29.8333 67.3333,30.1667 67,30.5C 65.9702,27.3685 63.8035,25.7018 60.5,25.5C 59.2825,24.8386 57.9492,24.1719 56.5,23.5C 58.7363,22.188 60.7363,22.5213 62.5,24.5C 63.6265,22.7305 63.1265,21.3972 61,20.5C 59.4931,21.5348 57.9931,21.3681 56.5,20C 57.9928,18.8438 57.8261,18.0104 56,17.5C 53.2033,17.2397 50.3699,17.2397 47.5,17.5C 45.8008,17.3398 44.1341,17.5065 42.5,18C 41.2949,19.3756 39.9616,20.5423 38.5,21.5C 37.325,21.281 36.325,21.6143 35.5,22.5C 36.3742,24.7466 36.7076,27.0799 36.5,29.5C 35.5,29.5 34.5,29.5 33.5,29.5C 27.1621,29.3406 23.9954,32.3406 24,38.5C 28.0595,42.7486 32.2262,43.0819 36.5,39.5C 39.7616,37.0753 41.2616,33.7419 41,29.5C 42.3988,30.2266 43.8988,30.7266 45.5,31C 46.8333,31.6667 46.8333,32.3333 45.5,33C 46.7375,33.2321 47.7375,33.7321 48.5,34.5C 44.529,35.5719 41.029,37.5719 38,40.5C 37.3333,41.5 37.3333,42.5 38,43.5C 39.045,44.3734 39.8783,45.3734 40.5,46.5C 40.1667,46.5 39.8333,46.5 39.5,46.5C 34.1667,46.5 28.8333,46.5 23.5,46.5C 23.573,44.9731 22.9063,43.9731 21.5,43.5C 18.6528,42.2899 15.8195,42.6232 13,44.5C 10.5909,41.8325 9.42422,41.9992 9.5,45C 7.44397,45.3108 5.44397,45.8108 3.5,46.5C 2.91395,46.2907 2.41395,45.9574 2,45.5C 1.62638,47.4913 0.793048,49.158 -0.5,50.5C -0.5,33.5 -0.5,16.5 -0.5,-0.5 Z"/></g>
<g><path style="opacity:1" fill="#fdfdfd" d="M 156.5,-0.5 C 204.167,-0.5 251.833,-0.5 299.5,-0.5C 299.5,10.1667 299.5,20.8333 299.5,31.5C 291.16,31.3336 282.827,31.5003 274.5,32C 269.686,43.1244 265.02,54.291 260.5,65.5C 259.808,64.9747 259.308,64.3081 259,63.5C 256.949,53.0928 255.116,42.7595 253.5,32.5C 250.5,32.5 247.5,32.5 244.5,32.5C 243.471,43.4545 242.304,54.4545 241,65.5C 240.722,66.4158 240.222,67.0825 239.5,67.5C 239.5,66.1667 239.5,64.8333 239.5,63.5C 240.685,54.6628 241.685,45.6628 242.5,36.5C 243.451,35.0813 243.784,33.4147 243.5,31.5C 234.318,31.1734 225.318,31.5067 216.5,32.5C 216.5,33.8333 216.5,35.1667 216.5,36.5C 214.718,47.7 213.051,59.0334 211.5,70.5C 207.052,74.3381 202.718,74.3381 198.5,70.5C 199.019,57.7887 200.019,45.122 201.5,32.5C 195.987,31.1843 190.32,31.1843 184.5,32.5C 184.624,33.1067 184.957,33.44 185.5,33.5C 186.5,34.1667 187.5,34.8333 188.5,35.5C 189.11,36.391 189.443,37.391 189.5,38.5C 186.529,36.3427 183.529,34.1761 180.5,32C 173.5,31.3333 166.5,31.3333 159.5,32C 157.336,33.0222 155.336,34.1889 153.5,35.5C 152.275,34.8478 151.608,33.6811 151.5,32C 152.361,25.1942 152.694,18.3609 152.5,11.5C 152.5,10.8333 152.5,10.1667 152.5,9.5C 152.833,9.5 153.167,9.5 153.5,9.5C 154.177,6.13907 155.177,2.80574 156.5,-0.5 Z"/></g>
<g><path style="opacity:1" fill="#fefcc8" d="M 152.5,4.5 C 143.983,4.17395 135.65,4.50728 127.5,5.5C 126.883,5.61071 126.383,5.94404 126,6.5C 125.819,9.69464 125.319,12.6946 124.5,15.5C 124.335,12.1501 124.502,8.81677 125,5.5C 125.5,5 126,4.5 126.5,4C 135.343,3.17639 144.01,3.34305 152.5,4.5 Z"/></g>
<g><path style="opacity:1" fill="#ebd363" d="M 127.5,5.5 C 135.65,4.50728 143.983,4.17395 152.5,4.5C 153.451,5.91866 153.784,7.58533 153.5,9.5C 153.167,9.5 152.833,9.5 152.5,9.5C 152.5,8.16667 152.5,6.83333 152.5,5.5C 144.167,5.5 135.833,5.5 127.5,5.5 Z"/></g>
<g><path style="opacity:1" fill="#d2df7d" d="M 47.5,17.5 C 47.5,18.1667 47.5,18.8333 47.5,19.5C 42.9804,18.6542 40.3138,20.6542 39.5,25.5C 37.1582,24.7893 36.8249,23.456 38.5,21.5C 39.9616,20.5423 41.2949,19.3756 42.5,18C 44.1341,17.5065 45.8008,17.3398 47.5,17.5 Z"/></g>
<g><path style="opacity:1" fill="#bdd32f" d="M 47.5,19.5 C 49.0622,20.7847 50.3955,22.2847 51.5,24C 50.0042,25.3307 48.6709,26.8307 47.5,28.5C 43.8204,30.2297 41.1537,29.2297 39.5,25.5C 40.3138,20.6542 42.9804,18.6542 47.5,19.5 Z"/></g>
<g><path style="opacity:1" fill="#f7cd2a" d="M 33.5,29.5 C 35.4672,30.9274 37.1339,32.7608 38.5,35C 37.5862,36.4064 36.9195,37.9064 36.5,39.5C 32.2262,43.0819 28.0595,42.7486 24,38.5C 23.9954,32.3406 27.1621,29.3406 33.5,29.5 Z"/></g>
<g><path style="opacity:1" fill="#fbfaef" d="M 60.5,25.5 C 63.8035,25.7018 65.9702,27.3685 67,30.5C 67.3333,30.1667 67.6667,29.8333 68,29.5C 68.6995,31.032 69.8662,32.032 71.5,32.5C 72.7678,31.5721 74.1011,31.4054 75.5,32C 73.8333,33.1667 72.1667,34.3333 70.5,35.5C 74.5954,37.1067 75.9288,39.7734 74.5,43.5C 73.6464,39.4738 71.1464,36.8071 67,35.5C 61.1846,37.7164 59.6846,41.3831 62.5,46.5C 59.5,46.5 56.5,46.5 53.5,46.5C 55.1128,45.1619 55.6128,43.4952 55,41.5C 52.8169,39.0929 50.6503,36.7596 48.5,34.5C 47.7375,33.7321 46.7375,33.2321 45.5,33C 46.8333,32.3333 46.8333,31.6667 45.5,31C 43.8988,30.7266 42.3988,30.2266 41,29.5C 41.2616,33.7419 39.7616,37.0753 36.5,39.5C 36.9195,37.9064 37.5862,36.4064 38.5,35C 37.1339,32.7608 35.4672,30.9274 33.5,29.5C 34.5,29.5 35.5,29.5 36.5,29.5C 36.7076,27.0799 36.3742,24.7466 35.5,22.5C 36.325,21.6143 37.325,21.281 38.5,21.5C 36.8249,23.456 37.1582,24.7893 39.5,25.5C 41.1537,29.2297 43.8204,30.2297 47.5,28.5C 48.6709,26.8307 50.0042,25.3307 51.5,24C 50.3955,22.2847 49.0622,20.7847 47.5,19.5C 47.5,18.8333 47.5,18.1667 47.5,17.5C 50.3699,17.2397 53.2033,17.2397 56,17.5C 57.8261,18.0104 57.9928,18.8438 56.5,20C 57.9931,21.3681 59.4931,21.5348 61,20.5C 63.1265,21.3972 63.6265,22.7305 62.5,24.5C 60.7363,22.5213 58.7363,22.188 56.5,23.5C 57.9492,24.1719 59.2825,24.8386 60.5,25.5 Z"/></g>
<g><path style="opacity:1" fill="#f4cd30" d="M 60.5,25.5 C 65.018,31.5231 63.3513,34.0231 55.5,33C 53.8051,28.2181 55.4718,25.7181 60.5,25.5 Z"/></g>
<g><path style="opacity:1" fill="#fdb1c6" d="M 201.5,32.5 C 195.974,32.1786 190.64,32.5119 185.5,33.5C 184.957,33.44 184.624,33.1067 184.5,32.5C 190.32,31.1843 195.987,31.1843 201.5,32.5 Z"/></g>
<g><path style="opacity:1" fill="#faaac2" d="M 216.5,32.5 C 225.318,31.5067 234.318,31.1734 243.5,31.5C 243.784,33.4147 243.451,35.0813 242.5,36.5C 242.5,35.1667 242.5,33.8333 242.5,32.5C 233.833,32.5 225.167,32.5 216.5,32.5 Z"/></g>
<g><path style="opacity:1" fill="#fbcb12" d="M 127.5,5.5 C 135.833,5.5 144.167,5.5 152.5,5.5C 152.5,6.83333 152.5,8.16667 152.5,9.5C 152.5,10.1667 152.5,10.8333 152.5,11.5C 151.404,19.1724 150.404,27.0057 149.5,35C 150.03,39.2671 151.363,39.4338 153.5,35.5C 155.336,34.1889 157.336,33.0222 159.5,32C 166.5,31.3333 173.5,31.3333 180.5,32C 183.529,34.1761 186.529,36.3427 189.5,38.5C 191.27,43.2638 192.27,48.2638 192.5,53.5C 192.001,58.159 191.667,62.8257 191.5,67.5C 191.5,68.1667 191.5,68.8333 191.5,69.5C 191.068,70.7095 190.401,71.7095 189.5,72.5C 187.412,74.3356 186.079,76.6689 185.5,79.5C 184.5,81.1667 183.167,82.5 181.5,83.5C 179.223,84.4486 177.223,85.7819 175.5,87.5C 167.4,90.6104 159.067,91.277 150.5,89.5C 148.911,87.6944 146.911,86.3611 144.5,85.5C 143.571,86.6888 143.238,88.0222 143.5,89.5C 139.833,89.5 136.167,89.5 132.5,89.5C 133.107,83.4888 133.774,77.4888 134.5,71.5C 130.489,72.0351 126.489,72.7018 122.5,73.5C 121.075,73.3767 119.742,73.0434 118.5,72.5C 118.5,71.8333 118.5,71.1667 118.5,70.5C 125.754,69.701 133.088,69.201 140.5,69C 146.697,53.2587 142.697,40.9253 128.5,32C 127.207,31.51 125.873,31.3433 124.5,31.5C 124.5,28.8333 124.5,26.1667 124.5,23.5C 124.5,20.8333 124.5,18.1667 124.5,15.5C 125.319,12.6946 125.819,9.69464 126,6.5C 126.383,5.94404 126.883,5.61071 127.5,5.5 Z"/></g>
<g><path style="opacity:1" fill="#131212" d="M 111.5,31.5 C 108.482,31.3354 105.482,31.502 102.5,32C 94.2333,48.6296 87.2333,65.7962 81.5,83.5C 79.7664,87.2996 77.7664,90.9663 75.5,94.5C 73.8689,96.2974 71.8689,97.4641 69.5,98C 49.1667,98.6667 28.8333,98.6667 8.5,98C 7.27297,96.4126 7.6063,95.0793 9.5,94C 29.5,93.6667 49.5,93.3333 69.5,93C 70.3734,91.955 71.3734,91.1217 72.5,90.5C 73.625,89.6522 73.625,88.6522 72.5,87.5C 73.4972,87.5299 74.1639,87.0299 74.5,86C 75.9133,82.1724 77.2466,78.3391 78.5,74.5C 76.5,73.8333 74.5,73.1667 72.5,72.5C 75.6981,73.0356 78.3647,72.369 80.5,70.5C 80.5,70.1667 80.5,69.8333 80.5,69.5C 81.3909,68.7387 82.0576,67.7387 82.5,66.5C 79.2317,65.513 75.8984,65.1796 72.5,65.5C 76.1667,64.8333 79.8333,64.1667 83.5,63.5C 83.8693,61.5588 84.536,59.7255 85.5,58C 81.8484,57.5014 78.1817,57.3347 74.5,57.5C 65.6822,56.5067 56.6822,56.1734 47.5,56.5C 47.5,56.1667 47.5,55.8333 47.5,55.5C 50.8333,55.5 54.1667,55.5 57.5,55.5C 57.8016,52.9407 57.4682,50.6074 56.5,48.5C 54.1667,48.5 51.8333,48.5 49.5,48.5C 50.8333,47.8333 52.1667,47.1667 53.5,46.5C 56.5,46.5 59.5,46.5 62.5,46.5C 65.5,46.5 68.5,46.5 71.5,46.5C 77.8333,46.5 84.1667,46.5 90.5,46.5C 91.6927,42.0894 93.1927,37.7561 95,33.5C 99.126,27.0298 104.959,24.8631 112.5,27C 113.581,28.7106 113.248,30.2106 111.5,31.5 Z"/></g>
<g><path style="opacity:1" fill="#de3857" d="M 216.5,32.5 C 225.167,32.5 233.833,32.5 242.5,32.5C 242.5,33.8333 242.5,35.1667 242.5,36.5C 241.685,45.6628 240.685,54.6628 239.5,63.5C 240.046,53.7976 240.046,44.131 239.5,34.5C 231.559,33.9194 223.892,34.5861 216.5,36.5C 216.5,35.1667 216.5,33.8333 216.5,32.5 Z"/></g>
<g><path style="opacity:1" fill="#fef8cb" d="M 152.5,11.5 C 152.694,18.3609 152.361,25.1942 151.5,32C 151.608,33.6811 152.275,34.8478 153.5,35.5C 151.363,39.4338 150.03,39.2671 149.5,35C 150.404,27.0057 151.404,19.1724 152.5,11.5 Z"/></g>
<g><path style="opacity:1" fill="#bcd22c" d="M 74.5,43.5 C 73.1667,44.1667 72.1667,45.1667 71.5,46.5C 68.5,46.5 65.5,46.5 62.5,46.5C 59.6846,41.3831 61.1846,37.7164 67,35.5C 71.1464,36.8071 73.6464,39.4738 74.5,43.5 Z"/></g>
<g><path style="opacity:1" fill="#ed3354" d="M 48.5,34.5 C 50.6503,36.7596 52.8169,39.0929 55,41.5C 55.6128,43.4952 55.1128,45.1619 53.5,46.5C 49.1667,46.5 44.8333,46.5 40.5,46.5C 39.8783,45.3734 39.045,44.3734 38,43.5C 37.3333,42.5 37.3333,41.5 38,40.5C 41.029,37.5719 44.529,35.5719 48.5,34.5 Z"/></g>
<g><path style="opacity:1" fill="#f92b53" d="M 239.5,63.5 C 239.5,64.8333 239.5,66.1667 239.5,67.5C 239.5,67.8333 239.5,68.1667 239.5,68.5C 238.833,68.5 238.5,68.8333 238.5,69.5C 237.778,69.9175 237.278,70.5842 237,71.5C 236.501,77.1569 236.334,82.8236 236.5,88.5C 228.167,88.5 219.833,88.5 211.5,88.5C 211.664,85.8127 211.497,83.146 211,80.5C 210.283,81.0442 209.783,81.7109 209.5,82.5C 200.867,90.4345 190.867,92.6012 179.5,89C 179.043,88.586 178.709,88.086 178.5,87.5C 179.524,86.1482 180.524,84.8149 181.5,83.5C 183.167,82.5 184.5,81.1667 185.5,79.5C 187.588,77.6644 188.921,75.3311 189.5,72.5C 190.401,71.7095 191.068,70.7095 191.5,69.5C 192.586,69.38 193.253,68.7133 193.5,67.5C 193.899,64.6409 194.733,61.9742 196,59.5C 195.906,63.6327 196.74,67.2994 198.5,70.5C 202.718,74.3381 207.052,74.3381 211.5,70.5C 212.458,70.0472 213.292,69.3805 214,68.5C 215.32,57.865 216.153,47.1983 216.5,36.5C 223.892,34.5861 231.559,33.9194 239.5,34.5C 240.046,44.131 240.046,53.7976 239.5,63.5 Z"/></g>
<g><path style="opacity:1" fill="#f8e4ae" d="M 189.5,38.5 C 191.974,40.8976 193.308,43.8976 193.5,47.5C 193.666,52.8437 193.499,58.1771 193,63.5C 192.79,65.0581 192.29,66.3915 191.5,67.5C 191.667,62.8257 192.001,58.159 192.5,53.5C 192.27,48.2638 191.27,43.2638 189.5,38.5 Z"/></g>
<g><path style="opacity:1" fill="#f72d52" d="M 193.5,47.5 C 193.308,43.8976 191.974,40.8976 189.5,38.5C 189.443,37.391 189.11,36.391 188.5,35.5C 188.62,34.4138 189.287,33.7472 190.5,33.5C 193.115,34.2692 195.781,34.6025 198.5,34.5C 198.666,41.5079 198.5,48.5079 198,55.5C 197.667,56.1667 197.333,56.8333 197,57.5C 196.502,54.1832 196.335,50.8499 196.5,47.5C 195.5,47.5 194.5,47.5 193.5,47.5 Z"/></g>
<g><path style="opacity:1" fill="#f9faf9" d="M 299.5,36.5 C 299.5,64.1667 299.5,91.8333 299.5,119.5C 199.5,119.5 99.5,119.5 -0.5,119.5C -0.5,96.5 -0.5,73.5 -0.5,50.5C 0.793048,49.158 1.62638,47.4913 2,45.5C 2.41395,45.9574 2.91395,46.2907 3.5,46.5C 5.44397,45.8108 7.44397,45.3108 9.5,45C 9.42422,41.9992 10.5909,41.8325 13,44.5C 15.8195,42.6232 18.6528,42.2899 21.5,43.5C 18.3511,43.4152 15.6845,44.4152 13.5,46.5C 10.8333,46.5 8.16667,46.5 5.5,46.5C 5.81192,57.827 7.14525,68.9937 9.5,80C 29.8574,82.8394 50.1907,85.8394 70.5,89C 71.4158,89.2784 72.0825,89.7784 72.5,90.5C 71.3734,91.1217 70.3734,91.955 69.5,93C 49.5,93.3333 29.5,93.6667 9.5,94C 7.6063,95.0793 7.27297,96.4126 8.5,98C 28.8333,98.6667 49.1667,98.6667 69.5,98C 71.8689,97.4641 73.8689,96.2974 75.5,94.5C 77.7664,90.9663 79.7664,87.2996 81.5,83.5C 85.5028,87.0002 90.1695,89.1668 95.5,90C 106.921,90.8853 118.255,90.3853 129.5,88.5C 134.123,90.6113 138.79,90.9447 143.5,89.5C 143.238,88.0222 143.571,86.6888 144.5,85.5C 146.911,86.3611 148.911,87.6944 150.5,89.5C 150.918,90.2216 151.584,90.7216 152.5,91C 157.833,91.6667 163.167,91.6667 168.5,91C 171.281,90.4782 173.615,89.3115 175.5,87.5C 177.223,85.7819 179.223,84.4486 181.5,83.5C 180.524,84.8149 179.524,86.1482 178.5,87.5C 178.709,88.086 179.043,88.586 179.5,89C 190.867,92.6012 200.867,90.4345 209.5,82.5C 210.468,84.6074 210.802,86.9407 210.5,89.5C 219.5,89.5 228.5,89.5 237.5,89.5C 237.833,82.8333 238.167,76.1667 238.5,69.5C 238.5,68.8333 238.833,68.5 239.5,68.5C 240.227,76.2943 241.393,83.961 243,91.5C 238.332,99.416 231.832,101.416 223.5,97.5C 222.558,97.6082 221.725,97.9415 221,98.5C 219.682,103.834 219.516,109.167 220.5,114.5C 240.547,119.988 256.047,113.988 267,96.5C 276.562,77.0419 286.396,57.7086 296.5,38.5C 297.357,37.5748 298.357,36.9081 299.5,36.5 Z"/></g>
<g><path style="opacity:1" fill="#32060c" d="M 39.5,46.5 C 39.8333,46.5 40.1667,46.5 40.5,46.5C 44.8333,46.5 49.1667,46.5 53.5,46.5C 52.1667,47.1667 50.8333,47.8333 49.5,48.5C 48.5,48.5 47.5,48.5 46.5,48.5C 46.5,49.5 46.5,50.5 46.5,51.5C 45.8333,51.5 45.1667,51.5 44.5,51.5C 44.5,49.5 43.5,48.5 41.5,48.5C 40.8333,47.8333 40.1667,47.1667 39.5,46.5 Z"/></g>
<g><path style="opacity:1" fill="#c74962" d="M 21.5,43.5 C 22.9063,43.9731 23.573,44.9731 23.5,46.5C 23.1667,46.5 22.8333,46.5 22.5,46.5C 19.5,46.5 16.5,46.5 13.5,46.5C 15.6845,44.4152 18.3511,43.4152 21.5,43.5 Z"/></g>
<g><path style="opacity:1" fill="#e3e3db" d="M 59.5,48.5 C 63.1667,48.5 66.8333,48.5 70.5,48.5C 70.7564,50.7925 70.4231,52.9592 69.5,55C 66.1832,55.4983 62.8499,55.665 59.5,55.5C 59.5,53.1667 59.5,50.8333 59.5,48.5 Z"/></g>
<g><path style="opacity:1" fill="#e8e8df" d="M 76.5,48.5 C 74.9134,52.9183 76.58,54.585 81.5,53.5C 81.634,51.7085 81.3007,50.0418 80.5,48.5C 83.1667,48.5 85.8333,48.5 88.5,48.5C 88.4139,50.677 87.7472,52.677 86.5,54.5C 81.8804,55.4933 77.2137,55.8266 72.5,55.5C 72.5,53.1667 72.5,50.8333 72.5,48.5C 73.8333,48.5 75.1667,48.5 76.5,48.5 Z"/></g>
<g><path style="opacity:1" fill="#e5e8d6" d="M 36.5,48.5 C 38.1667,48.5 39.8333,48.5 41.5,48.5C 43.5,48.5 44.5,49.5 44.5,51.5C 44.8432,53.4832 44.1765,54.8166 42.5,55.5C 40.6263,53.1873 38.6263,50.854 36.5,48.5 Z"/></g>
<g><path style="opacity:1" fill="#f2e5dd" d="M 49.5,48.5 C 51.8333,48.5 54.1667,48.5 56.5,48.5C 56.5,48.8333 56.5,49.1667 56.5,49.5C 53.3567,49.969 51.0233,51.6356 49.5,54.5C 48.5,54.5 47.5,54.5 46.5,54.5C 46.5,53.5 46.5,52.5 46.5,51.5C 46.5,50.5 46.5,49.5 46.5,48.5C 47.5,48.5 48.5,48.5 49.5,48.5 Z"/></g>
<g><path style="opacity:1" fill="#f7d230" d="M 56.5,49.5 C 56.5,51.1667 56.5,52.8333 56.5,54.5C 54.1667,54.5 51.8333,54.5 49.5,54.5C 51.0233,51.6356 53.3567,49.969 56.5,49.5 Z"/></g>
<g><path style="opacity:1" fill="#c1d04d" d="M 76.5,48.5 C 77.8333,48.5 79.1667,48.5 80.5,48.5C 81.3007,50.0418 81.634,51.7085 81.5,53.5C 76.58,54.585 74.9134,52.9183 76.5,48.5 Z"/></g>
<g><path style="opacity:1" fill="#fcfcf6" d="M 147.5,69.5 C 147.248,64.0087 147.915,58.6754 149.5,53.5C 150.593,49.6007 153.26,47.6007 157.5,47.5C 164.963,49.4711 167.463,54.1378 165,61.5C 163.312,70.1942 158.145,73.6942 149.5,72C 148.619,71.2917 147.953,70.4584 147.5,69.5 Z"/></g>
<g><path style="opacity:1" fill="#b8c63a" d="M 36.5,48.5 C 38.6263,50.854 40.6263,53.1873 42.5,55.5C 39.5,55.5 36.5,55.5 33.5,55.5C 33.5,53.1667 33.5,50.8333 33.5,48.5C 34.5,48.5 35.5,48.5 36.5,48.5 Z"/></g>
<g><path style="opacity:1" fill="#887323" d="M 56.5,48.5 C 57.4682,50.6074 57.8016,52.9407 57.5,55.5C 54.1667,55.5 50.8333,55.5 47.5,55.5C 46.8333,55.5 46.5,55.1667 46.5,54.5C 47.5,54.5 48.5,54.5 49.5,54.5C 51.8333,54.5 54.1667,54.5 56.5,54.5C 56.5,52.8333 56.5,51.1667 56.5,49.5C 56.5,49.1667 56.5,48.8333 56.5,48.5 Z"/></g>
<g><path style="opacity:1" fill="#faf6ef" d="M 74.5,57.5 C 78.1817,57.3347 81.8484,57.5014 85.5,58C 84.536,59.7255 83.8693,61.5588 83.5,63.5C 82.8333,63.5 82.1667,63.5 81.5,63.5C 80.2233,62.1024 78.5566,61.4357 76.5,61.5C 74.9704,61.6399 73.9704,62.3065 73.5,63.5C 72.8529,62.7261 72.5195,61.7261 72.5,60.5C 72.6399,58.9704 73.3065,57.9704 74.5,57.5 Z"/></g>
<g><path style="opacity:1" fill="#e3415d" d="M 185.5,33.5 C 190.64,32.5119 195.974,32.1786 201.5,32.5C 200.019,45.122 199.019,57.7887 198.5,70.5C 196.74,67.2994 195.906,63.6327 196,59.5C 194.733,61.9742 193.899,64.6409 193.5,67.5C 193.253,68.7133 192.586,69.38 191.5,69.5C 191.5,68.8333 191.5,68.1667 191.5,67.5C 192.29,66.3915 192.79,65.0581 193,63.5C 193.499,58.1771 193.666,52.8437 193.5,47.5C 194.5,47.5 195.5,47.5 196.5,47.5C 196.335,50.8499 196.502,54.1832 197,57.5C 197.333,56.8333 197.667,56.1667 198,55.5C 198.5,48.5079 198.666,41.5079 198.5,34.5C 195.781,34.6025 193.115,34.2692 190.5,33.5C 189.287,33.7472 188.62,34.4138 188.5,35.5C 187.5,34.8333 186.5,34.1667 185.5,33.5 Z"/></g>
<g><path style="opacity:1" fill="#f8f9eb" d="M 46.5,57.5 C 47.5,57.5 48.5,57.5 49.5,57.5C 50.4746,59.7952 51.8079,61.7952 53.5,63.5C 51.1667,63.5 48.8333,63.5 46.5,63.5C 46.5,61.5 46.5,59.5 46.5,57.5 Z"/></g>
<g><path style="opacity:1" fill="#edc940" d="M 49.5,57.5 C 52.6981,56.9644 55.3647,57.631 57.5,59.5C 57.5,60.8333 57.5,62.1667 57.5,63.5C 56.1667,63.5 54.8333,63.5 53.5,63.5C 51.8079,61.7952 50.4746,59.7952 49.5,57.5 Z"/></g>
<g><path style="opacity:1" fill="#fdf5ba" d="M 149.5,53.5 C 147.915,58.6754 147.248,64.0087 147.5,69.5C 145.983,67.5379 145.316,65.2046 145.5,62.5C 145.549,58.748 146.883,55.748 149.5,53.5 Z"/></g>
<g><path style="opacity:1" fill="#f2d643" d="M 81.5,63.5 C 78.8333,63.5 76.1667,63.5 73.5,63.5C 73.9704,62.3065 74.9704,61.6399 76.5,61.5C 78.5566,61.4357 80.2233,62.1024 81.5,63.5 Z"/></g>
<g><path style="opacity:1" fill="#1a1816" d="M 13.5,46.5 C 13.5,47.1667 13.5,47.8333 13.5,48.5C 11.5,48.5 9.5,48.5 7.5,48.5C 7.5,50.5 7.5,52.5 7.5,54.5C 9.13405,55.1611 10.9674,55.4944 13,55.5C 15.2953,55.4535 17.1286,54.7868 18.5,53.5C 19.1667,53.5 19.8333,53.5 20.5,53.5C 22.2789,55.3435 24.6122,56.0102 27.5,55.5C 28.8333,55.5 30.1667,55.5 31.5,55.5C 31.5,54.5 31.5,53.5 31.5,52.5C 31.5,51.1667 31.5,49.8333 31.5,48.5C 29.1667,48.5 26.8333,48.5 24.5,48.5C 24.1667,48.5 23.8333,48.5 23.5,48.5C 23.1667,47.8333 22.8333,47.1667 22.5,46.5C 22.8333,46.5 23.1667,46.5 23.5,46.5C 28.8333,46.5 34.1667,46.5 39.5,46.5C 40.1667,47.1667 40.8333,47.8333 41.5,48.5C 39.8333,48.5 38.1667,48.5 36.5,48.5C 35.5,48.5 34.5,48.5 33.5,48.5C 33.5,50.8333 33.5,53.1667 33.5,55.5C 36.5,55.5 39.5,55.5 42.5,55.5C 44.1765,54.8166 44.8432,53.4832 44.5,51.5C 45.1667,51.5 45.8333,51.5 46.5,51.5C 46.5,52.5 46.5,53.5 46.5,54.5C 46.5,55.1667 46.8333,55.5 47.5,55.5C 47.5,55.8333 47.5,56.1667 47.5,56.5C 46.8333,56.5 46.5,56.8333 46.5,57.5C 46.5,59.5 46.5,61.5 46.5,63.5C 48.8333,63.5 51.1667,63.5 53.5,63.5C 54.8333,63.5 56.1667,63.5 57.5,63.5C 57.5,62.1667 57.5,60.8333 57.5,59.5C 58.1667,60.8333 58.8333,62.1667 59.5,63.5C 62.5,64.1667 65.5,64.8333 68.5,65.5C 67.5,65.5 66.5,65.5 65.5,65.5C 63.5,65.5 61.5,65.5 59.5,65.5C 59.5,67.8333 59.5,70.1667 59.5,72.5C 62.5,72.5 65.5,72.5 68.5,72.5C 69.1667,72.5 69.8333,72.5 70.5,72.5C 66.8333,73.1667 63.1667,73.8333 59.5,74.5C 59.1774,78.226 59.5108,81.8927 60.5,85.5C 63.5,86.1667 66.5,86.8333 69.5,87.5C 70.2975,87.0431 70.6309,86.3764 70.5,85.5C 70.4088,83.3023 71.0755,82.9689 72.5,84.5C 72.5,85.5 72.5,86.5 72.5,87.5C 73.625,88.6522 73.625,89.6522 72.5,90.5C 72.0825,89.7784 71.4158,89.2784 70.5,89C 50.1907,85.8394 29.8574,82.8394 9.5,80C 7.14525,68.9937 5.81192,57.827 5.5,46.5C 8.16667,46.5 10.8333,46.5 13.5,46.5 Z"/></g>
<g><path style="opacity:1" fill="#f2f2db" d="M 40.5,57.5 C 41.8333,57.5 43.1667,57.5 44.5,57.5C 44.5,59.5 44.5,61.5 44.5,63.5C 40.351,64.0803 36.6843,63.4136 33.5,61.5C 37.2221,62.3201 39.5554,60.9868 40.5,57.5 Z"/></g>
<g><path style="opacity:1" fill="#eacc32" d="M 20.5,58.5 C 23.1354,59.8109 25.4687,61.4776 27.5,63.5C 25.1667,63.5 22.8333,63.5 20.5,63.5C 20.5,61.8333 20.5,60.1667 20.5,58.5 Z"/></g>
<g><path style="opacity:1" fill="#efd04a" d="M 12.5,57.5 C 14.5,57.5 16.5,57.5 18.5,57.5C 18.5,59.5 18.5,61.5 18.5,63.5C 15.5,63.5 12.5,63.5 9.5,63.5C 10.5,61.5 11.5,59.5 12.5,57.5 Z"/></g>
<g><path style="opacity:1" fill="#bdd636" d="M 40.5,57.5 C 39.5554,60.9868 37.2221,62.3201 33.5,61.5C 33.5,60.1667 33.5,58.8333 33.5,57.5C 35.8333,57.5 38.1667,57.5 40.5,57.5 Z"/></g>
<g><path style="opacity:1" fill="#f0f0cf" d="M 20.5,58.5 C 23.9619,57.5184 27.6286,57.185 31.5,57.5C 31.5,59.5 31.5,61.5 31.5,63.5C 30.1667,63.5 28.8333,63.5 27.5,63.5C 25.4687,61.4776 23.1354,59.8109 20.5,58.5 Z"/></g>
<g><path style="opacity:1" fill="#ecf2e9" d="M 12.5,57.5 C 11.5,59.5 10.5,61.5 9.5,63.5C 8.53862,61.7354 8.20528,59.7354 8.5,57.5C 9.83333,57.5 11.1667,57.5 12.5,57.5 Z"/></g>
<g><path style="opacity:1" fill="#768132" d="M 31.5,52.5 C 31.5,53.5 31.5,54.5 31.5,55.5C 30.1667,55.5 28.8333,55.5 27.5,55.5C 28.2623,53.7376 29.5956,52.7376 31.5,52.5 Z"/></g>
<g><path style="opacity:1" fill="#888489" d="M 16.5,53.5 C 17.1667,53.5 17.8333,53.5 18.5,53.5C 17.1286,54.7868 15.2953,55.4535 13,55.5C 10.9674,55.4944 9.13405,55.1611 7.5,54.5C 10.7131,54.81 13.7131,54.4767 16.5,53.5 Z"/></g>
<g><path style="opacity:1" fill="#ebe9e0" d="M 24.5,48.5 C 26.8333,48.5 29.1667,48.5 31.5,48.5C 31.5,49.8333 31.5,51.1667 31.5,52.5C 29.5956,52.7376 28.2623,53.7376 27.5,55.5C 24.6122,56.0102 22.2789,55.3435 20.5,53.5C 20.5,53.1667 20.5,52.8333 20.5,52.5C 23.179,52.4754 24.5123,51.142 24.5,48.5 Z"/></g>
<g><path style="opacity:1" fill="#c24662" d="M 13.5,48.5 C 15.1667,48.5 16.8333,48.5 18.5,48.5C 18.5,50.1667 18.5,51.8333 18.5,53.5C 17.8333,53.5 17.1667,53.5 16.5,53.5C 15.2632,52.0351 14.2632,50.3684 13.5,48.5 Z"/></g>
<g><path style="opacity:1" fill="#c8435d" d="M 23.5,48.5 C 23.8333,48.5 24.1667,48.5 24.5,48.5C 24.5123,51.142 23.179,52.4754 20.5,52.5C 20.5,51.1667 20.5,49.8333 20.5,48.5C 21.5,48.5 22.5,48.5 23.5,48.5 Z"/></g>
<g><path style="opacity:1" fill="#fbf9f9" d="M 13.5,48.5 C 14.2632,50.3684 15.2632,52.0351 16.5,53.5C 13.7131,54.4767 10.7131,54.81 7.5,54.5C 7.5,52.5 7.5,50.5 7.5,48.5C 9.5,48.5 11.5,48.5 13.5,48.5 Z"/></g>
<g><path style="opacity:1" fill="#3b0205" d="M 13.5,46.5 C 16.5,46.5 19.5,46.5 22.5,46.5C 22.8333,47.1667 23.1667,47.8333 23.5,48.5C 22.5,48.5 21.5,48.5 20.5,48.5C 20.5,49.8333 20.5,51.1667 20.5,52.5C 20.5,52.8333 20.5,53.1667 20.5,53.5C 19.8333,53.5 19.1667,53.5 18.5,53.5C 18.5,51.8333 18.5,50.1667 18.5,48.5C 16.8333,48.5 15.1667,48.5 13.5,48.5C 13.5,47.8333 13.5,47.1667 13.5,46.5 Z"/></g>
<g><path style="opacity:1" fill="#342c2a" d="M 46.5,57.5 C 46.5,56.8333 46.8333,56.5 47.5,56.5C 56.6822,56.1734 65.6822,56.5067 74.5,57.5C 73.3065,57.9704 72.6399,58.9704 72.5,60.5C 72.5195,61.7261 72.8529,62.7261 73.5,63.5C 76.1667,63.5 78.8333,63.5 81.5,63.5C 82.1667,63.5 82.8333,63.5 83.5,63.5C 79.8333,64.1667 76.1667,64.8333 72.5,65.5C 72.5,67.8333 72.5,70.1667 72.5,72.5C 74.5,73.1667 76.5,73.8333 78.5,74.5C 75.9179,74.0254 73.9179,74.6921 72.5,76.5C 71.5,75.8333 70.5,75.1667 69.5,74.5C 66.1667,74.5 62.8333,74.5 59.5,74.5C 63.1667,73.8333 66.8333,73.1667 70.5,72.5C 71.0102,69.6122 70.3435,67.2789 68.5,65.5C 65.5,64.8333 62.5,64.1667 59.5,63.5C 58.8333,62.1667 58.1667,60.8333 57.5,59.5C 55.3647,57.631 52.6981,56.9644 49.5,57.5C 48.5,57.5 47.5,57.5 46.5,57.5 Z"/></g>
<g><path style="opacity:1" fill="#fbf6ed" d="M 66.5,57.5 C 66.5,59.5 67.5,60.5 69.5,60.5C 69.5,61.5 69.5,62.5 69.5,63.5C 66.1667,63.5 62.8333,63.5 59.5,63.5C 59.5,61.5 59.5,59.5 59.5,57.5C 61.8333,57.5 64.1667,57.5 66.5,57.5 Z"/></g>
<g><path style="opacity:1" fill="#d03e5a" d="M 66.5,57.5 C 67.5,57.5 68.5,57.5 69.5,57.5C 69.5,58.5 69.5,59.5 69.5,60.5C 67.5,60.5 66.5,59.5 66.5,57.5 Z"/></g>
<g><path style="opacity:1" fill="#f3f4f0" d="M 56.5,65.5 C 56.2504,66.9221 55.417,67.9221 54,68.5C 53.51,69.7932 53.3433,71.1266 53.5,72.5C 51.1667,72.5 48.8333,72.5 46.5,72.5C 46.5,70.1667 46.5,67.8333 46.5,65.5C 49.8333,65.5 53.1667,65.5 56.5,65.5 Z"/></g>
<g><path style="opacity:1" fill="#dedecb" d="M 65.5,65.5 C 66.5,65.5 67.5,65.5 68.5,65.5C 70.3435,67.2789 71.0102,69.6122 70.5,72.5C 69.8333,72.5 69.1667,72.5 68.5,72.5C 68.2838,69.7438 67.2838,67.4105 65.5,65.5 Z"/></g>
<g><path style="opacity:1" fill="#e9c62a" d="M 28.5,65.5 C 27.9573,68.0384 26.9573,70.3718 25.5,72.5C 23.8333,72.5 22.1667,72.5 20.5,72.5C 20.5,70.1667 20.5,67.8333 20.5,65.5C 23.1667,65.5 25.8333,65.5 28.5,65.5 Z"/></g>
<g><path style="opacity:1" fill="#f3e0e2" d="M 36.5,65.5 C 36.5,65.8333 36.5,66.1667 36.5,66.5C 35.5489,67.9187 35.2155,69.5853 35.5,71.5C 35.5,71.8333 35.5,72.1667 35.5,72.5C 33.6565,70.7211 32.9898,68.3878 33.5,65.5C 34.5,65.5 35.5,65.5 36.5,65.5 Z"/></g>
<g><path style="opacity:1" fill="#ddbf58" d="M 72.5,65.5 C 75.8984,65.1796 79.2317,65.513 82.5,66.5C 82.0576,67.7387 81.3909,68.7387 80.5,69.5C 80.5,68.5 80.5,67.5 80.5,66.5C 78.1667,66.5 75.8333,66.5 73.5,66.5C 73.9162,71.1874 76.2495,72.5208 80.5,70.5C 78.3647,72.369 75.6981,73.0356 72.5,72.5C 72.5,70.1667 72.5,67.8333 72.5,65.5 Z"/></g>
<g><path style="opacity:1" fill="#f7f298" d="M 124.5,23.5 C 124.5,26.1667 124.5,28.8333 124.5,31.5C 125.873,31.3433 127.207,31.51 128.5,32C 142.697,40.9253 146.697,53.2587 140.5,69C 133.088,69.201 125.754,69.701 118.5,70.5C 116.085,69.1858 113.252,68.5191 110,68.5C 106.748,68.5191 103.915,69.1858 101.5,70.5C 100.596,69.791 100.263,68.791 100.5,67.5C 113.5,67.5 126.5,67.5 139.5,67.5C 144.758,50.5607 139.425,38.5607 123.5,31.5C 123.194,28.6146 123.527,25.9479 124.5,23.5 Z"/></g>
<g><path style="opacity:1" fill="#e35973" d="M 216.5,36.5 C 216.153,47.1983 215.32,57.865 214,68.5C 213.292,69.3805 212.458,70.0472 211.5,70.5C 213.051,59.0334 214.718,47.7 216.5,36.5 Z"/></g>
<g><path style="opacity:1" fill="#facd14" d="M 80.5,69.5 C 80.5,69.8333 80.5,70.1667 80.5,70.5C 76.2495,72.5208 73.9162,71.1874 73.5,66.5C 75.8333,66.5 78.1667,66.5 80.5,66.5C 80.5,67.5 80.5,68.5 80.5,69.5 Z"/></g>
<g><path style="opacity:1" fill="#fcfcf5" d="M 118.5,70.5 C 118.5,71.1667 118.5,71.8333 118.5,72.5C 117.486,73.7647 115.986,74.4313 114,74.5C 110.459,73.975 106.959,73.3083 103.5,72.5C 102.833,71.8333 102.167,71.1667 101.5,70.5C 103.915,69.1858 106.748,68.5191 110,68.5C 113.252,68.5191 116.085,69.1858 118.5,70.5 Z"/></g>
<g><path style="opacity:1" fill="#ece8d0" d="M 28.5,65.5 C 29.5,65.5 30.5,65.5 31.5,65.5C 31.5,67.8333 31.5,70.1667 31.5,72.5C 29.5,72.5 27.5,72.5 25.5,72.5C 26.9573,70.3718 27.9573,68.0384 28.5,65.5 Z"/></g>
<g><path style="opacity:1" fill="#bac849" d="M 56.5,65.5 C 57.4682,67.6074 57.8016,69.9407 57.5,72.5C 56.1667,72.5 54.8333,72.5 53.5,72.5C 53.3433,71.1266 53.51,69.7932 54,68.5C 55.417,67.9221 56.2504,66.9221 56.5,65.5 Z"/></g>
<g><path style="opacity:1" fill="#bbcd36" d="M 65.5,65.5 C 67.2838,67.4105 68.2838,69.7438 68.5,72.5C 65.5,72.5 62.5,72.5 59.5,72.5C 59.5,70.1667 59.5,67.8333 59.5,65.5C 61.5,65.5 63.5,65.5 65.5,65.5 Z"/></g>
<g><path style="opacity:1" fill="#f0ce23" d="M 17.5,65.5 C 17.5,67.5 17.5,69.5 17.5,71.5C 14.8333,71.5 12.1667,71.5 9.5,71.5C 9.5,69.5 9.5,67.5 9.5,65.5C 12.1667,65.5 14.8333,65.5 17.5,65.5 Z"/></g>
<g><path style="opacity:1" fill="#ec3558" d="M 36.5,66.5 C 38.8333,66.5 41.1667,66.5 43.5,66.5C 43.5,68.1667 43.5,69.8333 43.5,71.5C 40.8333,71.5 38.1667,71.5 35.5,71.5C 35.2155,69.5853 35.5489,67.9187 36.5,66.5 Z"/></g>
<g><path style="opacity:1" fill="#b5a24b" d="M 17.5,65.5 C 18.4682,67.6074 18.8016,69.9407 18.5,72.5C 15.2869,72.81 12.2869,72.4767 9.5,71.5C 12.1667,71.5 14.8333,71.5 17.5,71.5C 17.5,69.5 17.5,67.5 17.5,65.5 Z"/></g>
<g><path style="opacity:1" fill="#9b3644" d="M 36.5,66.5 C 36.5,66.1667 36.5,65.8333 36.5,65.5C 39.1667,65.5 41.8333,65.5 44.5,65.5C 44.5,67.8333 44.5,70.1667 44.5,72.5C 41.5,72.5 38.5,72.5 35.5,72.5C 35.5,72.1667 35.5,71.8333 35.5,71.5C 38.1667,71.5 40.8333,71.5 43.5,71.5C 43.5,69.8333 43.5,68.1667 43.5,66.5C 41.1667,66.5 38.8333,66.5 36.5,66.5 Z"/></g>
<g><path style="opacity:1" fill="#87ddfb" d="M 299.5,31.5 C 299.5,33.1667 299.5,34.8333 299.5,36.5C 298.357,36.9081 297.357,37.5748 296.5,38.5C 286.396,57.7086 276.562,77.0419 267,96.5C 256.047,113.988 240.547,119.988 220.5,114.5C 219.516,109.167 219.682,103.834 221,98.5C 221.725,97.9415 222.558,97.6082 223.5,97.5C 231.832,101.416 238.332,99.416 243,91.5C 241.393,83.961 240.227,76.2943 239.5,68.5C 239.5,68.1667 239.5,67.8333 239.5,67.5C 240.222,67.0825 240.722,66.4158 241,65.5C 242.304,54.4545 243.471,43.4545 244.5,32.5C 247.5,32.5 250.5,32.5 253.5,32.5C 255.116,42.7595 256.949,53.0928 259,63.5C 259.308,64.3081 259.808,64.9747 260.5,65.5C 265.02,54.291 269.686,43.1244 274.5,32C 282.827,31.5003 291.16,31.3336 299.5,31.5 Z"/></g>
<g><path style="opacity:1" fill="#f5f5a3" d="M 143.5,89.5 C 138.79,90.9447 134.123,90.6113 129.5,88.5C 131.349,83.8025 132.349,78.8025 132.5,73.5C 123.93,75.365 115.264,75.865 106.5,75C 105.429,74.1482 104.429,73.3149 103.5,72.5C 106.959,73.3083 110.459,73.975 114,74.5C 115.986,74.4313 117.486,73.7647 118.5,72.5C 119.742,73.0434 121.075,73.3767 122.5,73.5C 126.489,72.7018 130.489,72.0351 134.5,71.5C 133.774,77.4888 133.107,83.4888 132.5,89.5C 136.167,89.5 139.833,89.5 143.5,89.5 Z"/></g>
<g><path style="opacity:1" fill="#eeeeed" d="M 20.5,74.5 C 24.1667,74.5 27.8333,74.5 31.5,74.5C 31.8076,76.924 31.4742,79.2573 30.5,81.5C 27.3404,79.9733 24.007,79.3067 20.5,79.5C 20.5,77.8333 20.5,76.1667 20.5,74.5 Z"/></g>
<g><path style="opacity:1" fill="#f2ca34" d="M 53.5,74.5 C 55.5897,81.2514 53.2563,83.2514 46.5,80.5C 46.5,78.5 46.5,76.5 46.5,74.5C 48.8333,74.5 51.1667,74.5 53.5,74.5 Z"/></g>
<g><path style="opacity:1" fill="#eddbde" d="M 59.5,74.5 C 62.8333,74.5 66.1667,74.5 69.5,74.5C 69.5,74.8333 69.5,75.1667 69.5,75.5C 66.8015,75.4661 64.3015,76.1328 62,77.5C 62.1529,80.1738 62.6529,82.8405 63.5,85.5C 65.5,85.5 67.5,85.5 69.5,85.5C 69.8333,85.5 70.1667,85.5 70.5,85.5C 70.6309,86.3764 70.2975,87.0431 69.5,87.5C 66.5,86.8333 63.5,86.1667 60.5,85.5C 59.5108,81.8927 59.1774,78.226 59.5,74.5 Z"/></g>
<g><path style="opacity:1" fill="#f2f1f2" d="M 10.5,74.5 C 13.1667,74.5 15.8333,74.5 18.5,74.5C 18.5,75.8333 18.5,77.1667 18.5,78.5C 16.1432,78.6633 13.8098,78.4966 11.5,78C 10.6634,76.9887 10.33,75.8221 10.5,74.5 Z"/></g>
<g><path style="opacity:1" fill="#f1eeef" d="M 78.5,74.5 C 77.2466,78.3391 75.9133,82.1724 74.5,86C 74.1639,87.0299 73.4972,87.5299 72.5,87.5C 72.5,86.5 72.5,85.5 72.5,84.5C 72.5,84.1667 72.5,83.8333 72.5,83.5C 74.9163,81.7051 74.9163,79.7051 72.5,77.5C 72.5,77.1667 72.5,76.8333 72.5,76.5C 73.9179,74.6921 75.9179,74.0254 78.5,74.5 Z"/></g>
<g><path style="opacity:1" fill="#bed41e" d="M 111.5,31.5 C 115.5,31.5 119.5,31.5 123.5,31.5C 139.425,38.5607 144.758,50.5607 139.5,67.5C 126.5,67.5 113.5,67.5 100.5,67.5C 100.263,68.791 100.596,69.791 101.5,70.5C 102.167,71.1667 102.833,71.8333 103.5,72.5C 104.429,73.3149 105.429,74.1482 106.5,75C 115.264,75.865 123.93,75.365 132.5,73.5C 132.349,78.8025 131.349,83.8025 129.5,88.5C 118.255,90.3853 106.921,90.8853 95.5,90C 90.1695,89.1668 85.5028,87.0002 81.5,83.5C 87.2333,65.7962 94.2333,48.6296 102.5,32C 105.482,31.502 108.482,31.3354 111.5,31.5 Z"/></g>
<g><path style="opacity:1" fill="#dee98b" d="M 102.5,52.5 C 107.056,54.4417 112.056,55.1083 117.5,54.5C 112.36,55.4881 107.026,55.8214 101.5,55.5C 101.263,54.209 101.596,53.209 102.5,52.5 Z"/></g>
<g><path style="opacity:1" fill="#fdfdee" d="M 117.5,54.5 C 112.056,55.1083 107.056,54.4417 102.5,52.5C 104.28,46.53 108.28,44.3633 114.5,46C 117.125,48.1962 118.125,51.0295 117.5,54.5 Z"/></g>
<g><path style="opacity:1" fill="#ffe3b1" d="M 189.5,72.5 C 188.921,75.3311 187.588,77.6644 185.5,79.5C 186.079,76.6689 187.412,74.3356 189.5,72.5 Z"/></g>
<g><path style="opacity:1" fill="#ecebe2" d="M 33.5,74.5 C 37.1667,74.5 40.8333,74.5 44.5,74.5C 44.5,77.1667 44.5,79.8333 44.5,82.5C 40.7852,82.577 37.1185,82.2436 33.5,81.5C 33.5,79.1667 33.5,76.8333 33.5,74.5 Z"/></g>
<g><path style="opacity:1" fill="#c1d24b" d="M 35.5,75.5 C 37.5,75.5 39.5,75.5 41.5,75.5C 42.1067,79.9028 40.44,81.2361 36.5,79.5C 35.5713,78.3112 35.238,76.9778 35.5,75.5 Z"/></g>
<g><path style="opacity:1" fill="#ec3758" d="M 69.5,75.5 C 69.5,78.8333 69.5,82.1667 69.5,85.5C 67.5,85.5 65.5,85.5 63.5,85.5C 62.6529,82.8405 62.1529,80.1738 62,77.5C 64.3015,76.1328 66.8015,75.4661 69.5,75.5 Z"/></g>
<g><path style="opacity:1" fill="#e4e2d2" d="M 53.5,74.5 C 54.8333,74.5 56.1667,74.5 57.5,74.5C 57.5,77.8333 57.5,81.1667 57.5,84.5C 54.1501,84.665 50.8168,84.4983 47.5,84C 46.6634,82.9887 46.33,81.8221 46.5,80.5C 53.2563,83.2514 55.5897,81.2514 53.5,74.5 Z"/></g>
<g><path style="opacity:1" fill="#4a0c16" d="M 69.5,74.5 C 70.5,75.1667 71.5,75.8333 72.5,76.5C 72.5,76.8333 72.5,77.1667 72.5,77.5C 72.5,79.5 72.5,81.5 72.5,83.5C 72.5,83.8333 72.5,84.1667 72.5,84.5C 71.0755,82.9689 70.4088,83.3023 70.5,85.5C 70.1667,85.5 69.8333,85.5 69.5,85.5C 69.5,82.1667 69.5,78.8333 69.5,75.5C 69.5,75.1667 69.5,74.8333 69.5,74.5 Z"/></g>
<g><path style="opacity:1" fill="#d2798e" d="M 72.5,77.5 C 74.9163,79.7051 74.9163,81.7051 72.5,83.5C 72.5,81.5 72.5,79.5 72.5,77.5 Z"/></g>
<g><path style="opacity:1" fill="#d8516b" d="M 238.5,69.5 C 238.167,76.1667 237.833,82.8333 237.5,89.5C 228.5,89.5 219.5,89.5 210.5,89.5C 210.802,86.9407 210.468,84.6074 209.5,82.5C 209.783,81.7109 210.283,81.0442 211,80.5C 211.497,83.146 211.664,85.8127 211.5,88.5C 219.833,88.5 228.167,88.5 236.5,88.5C 236.334,82.8236 236.501,77.1569 237,71.5C 237.278,70.5842 237.778,69.9175 238.5,69.5 Z"/></g>
<g><path style="opacity:1" fill="#fef3a8" d="M 175.5,87.5 C 173.615,89.3115 171.281,90.4782 168.5,91C 163.167,91.6667 157.833,91.6667 152.5,91C 151.584,90.7216 150.918,90.2216 150.5,89.5C 159.067,91.277 167.4,90.6104 175.5,87.5 Z"/></g>
<g><path style="opacity:1" fill="#5b5b5b" d="M 79.5,100.5 C 81.8568,100.337 84.1902,100.503 86.5,101C 79.5166,101.908 79.1833,102.908 85.5,104C 77.7146,105.558 77.7146,106.891 85.5,108C 83.1902,108.497 80.8568,108.663 78.5,108.5C 78.8333,105.833 79.1667,103.167 79.5,100.5 Z"/></g>
<g><path style="opacity:1" fill="#101010" d="M 22.5,101.5 C 26.9536,100.617 30.4536,101.95 33,105.5C 33.6357,111.036 31.1357,114.036 25.5,114.5C 19.5832,113.676 17.4165,110.342 19,104.5C 20.1451,103.364 21.3117,102.364 22.5,101.5 Z"/></g>
<g><path style="opacity:1" fill="#121212" d="M 50.5,101.5 C 58.4764,99.6996 62.3097,102.7 62,110.5C 58.3459,114.804 54.1793,115.471 49.5,112.5C 46.6635,108.526 46.9968,104.859 50.5,101.5 Z"/></g>
<g><path style="opacity:1" fill="#707070" d="M 122.5,104.5 C 124.114,102.925 126.114,102.259 128.5,102.5C 128.819,104.75 128.319,106.75 127,108.5C 127.046,106.687 126.88,105.021 126.5,103.5C 125.066,104.936 123.9,106.602 123,108.5C 122.51,107.207 122.343,105.873 122.5,104.5 Z"/></g>
<g><path style="opacity:1" fill="#616162" d="M 158.5,100.5 C 158.662,102.888 158.995,105.388 159.5,108C 158.552,108.483 157.552,108.649 156.5,108.5C 156.858,105.733 157.525,103.067 158.5,100.5 Z"/></g>
<g><path style="opacity:1" fill="#6e6e6e" d="M 203.5,102.5 C 205.167,102.5 206.833,102.5 208.5,102.5C 208.799,104.604 208.466,106.604 207.5,108.5C 207.331,106.883 206.997,105.216 206.5,103.5C 205.066,104.936 203.9,106.602 203,108.5C 202.51,106.455 202.677,104.455 203.5,102.5 Z"/></g>
<g><path style="opacity:1" fill="#727272" d="M 111.5,100.5 C 112.097,100.735 112.43,101.235 112.5,102C 112.022,104.226 111.355,106.392 110.5,108.5C 110.12,106.979 109.954,105.313 110,103.5C 108.327,106.001 106.493,108.334 104.5,110.5C 103.707,109.645 104.04,108.811 105.5,108C 103.592,102.171 101.759,102.338 100,108.5C 99.5045,106.527 99.3379,104.527 99.5,102.5C 101.5,102.5 103.5,102.5 105.5,102.5C 105.343,103.873 105.51,105.207 106,106.5C 107.36,103.977 109.193,101.977 111.5,100.5 Z"/></g>
<g><path style="opacity:1" fill="#6e6e6e" d="M 131.5,103.5 C 132.568,102.566 133.901,102.232 135.5,102.5C 136.079,106.455 134.746,109.455 131.5,111.5C 130.692,111.192 130.025,110.692 129.5,110C 133.852,109.581 134.185,108.914 130.5,108C 132.291,107.585 133.624,106.585 134.5,105C 133.756,103.961 132.756,103.461 131.5,103.5 Z"/></g>
<g><path style="opacity:1" fill="#5f5f5e" d="M 144.5,100.5 C 149.447,101.76 150.447,104.427 147.5,108.5C 146.863,107.782 146.863,106.782 147.5,105.5C 147.176,103.431 146.342,103.098 145,104.5C 144.51,103.207 144.343,101.873 144.5,100.5 Z"/></g>
<g><path style="opacity:1" fill="#5d5d5d" d="M 92.5,104.5 C 91.8333,104.833 91.1667,105.167 90.5,105.5C 91.032,102.54 91.6987,102.207 92.5,104.5 Z"/></g>
<g><path style="opacity:1" fill="#8b8b8b" d="M 92.5,104.5 C 96.713,101.289 98.5464,102.289 98,107.5C 94.5341,109.35 92.7007,108.35 92.5,104.5 Z"/></g>
<g><path style="opacity:1" fill="#ededeb" d="M 171.5,103.5 C 172.5,103.5 173.5,103.5 174.5,103.5C 174.5,104.833 174.5,106.167 174.5,107.5C 171.014,107.705 170.014,106.371 171.5,103.5 Z"/></g>
<g><path style="opacity:1" fill="#696969" d="M 189.5,106.5 C 190.292,102.119 191.459,101.786 193,105.5C 193.419,104.328 194.085,103.328 195,102.5C 195.044,104.76 194.211,106.76 192.5,108.5C 191.749,107.624 191.249,106.624 191,105.5C 190.617,106.056 190.117,106.389 189.5,106.5 Z"/></g>
<g><path style="opacity:1" fill="#7a7b7e" d="M 210.5,101.5 C 211.289,101.783 211.956,102.283 212.5,103C 211.897,104.825 211.23,106.659 210.5,108.5C 209.286,106.141 209.286,103.808 210.5,101.5 Z"/></g>
<g><path style="opacity:1" fill="#7b7b7b" d="M 122.5,104.5 C 121.839,105.718 121.172,107.051 120.5,108.5C 119.808,107.975 119.308,107.308 119,106.5C 118.465,108.271 117.631,108.604 116.5,107.5C 117.645,106.109 117.645,104.776 116.5,103.5C 115.316,105.046 114.316,106.713 113.5,108.5C 113.167,108.333 112.833,108.167 112.5,108C 113.406,105.553 114.239,103.053 115,100.5C 117.009,101.833 118.676,103.5 120,105.5C 120.249,104.376 120.749,103.376 121.5,102.5C 122.298,102.957 122.631,103.624 122.5,104.5 Z"/></g>
<g><path style="opacity:1" fill="#666667" d="M 169.5,104.5 C 163.926,112.963 162.426,112.296 165,102.5C 165.333,103.833 165.667,105.167 166,106.5C 167,105.167 168,103.833 169,102.5C 169.464,103.094 169.631,103.761 169.5,104.5 Z"/></g>
<g><path style="opacity:1" fill="#5d5d5d" d="M 189.5,106.5 C 189.631,107.376 189.298,108.043 188.5,108.5C 187.359,106.579 187.192,104.579 188,102.5C 188.21,104.058 188.71,105.391 189.5,106.5 Z"/></g>
<g><path style="opacity:1" fill="#626262" d="M 197.5,103.5 C 198.568,102.566 199.901,102.232 201.5,102.5C 201.5,104.5 201.5,106.5 201.5,108.5C 199.396,108.799 197.396,108.466 195.5,107.5C 196.687,107.446 198.02,107.113 199.5,106.5C 200.872,104.38 200.205,103.38 197.5,103.5 Z"/></g>
<g><path style="opacity:1" fill="#ededed" d="M 24.5,105.5 C 28.1612,105.35 29.1612,106.85 27.5,110C 23.7071,110.487 22.7071,108.987 24.5,105.5 Z"/></g>
<g><path style="opacity:1" fill="#e9e9e9" d="M 52.5,105.5 C 56.1378,104.737 57.6378,106.07 57,109.5C 53.3307,111.009 51.8307,109.676 52.5,105.5 Z"/></g>
<g><path style="opacity:1" fill="#5f5f5f" d="M 90.5,105.5 C 90.5852,106.995 89.9185,107.995 88.5,108.5C 87.3691,106.926 87.2025,105.259 88,103.5C 88.0748,105.935 88.9081,106.602 90.5,105.5 Z"/></g>
<g><path style="opacity:1" fill="#606060" d="M 141.5,100.5 C 142.097,100.735 142.43,101.235 142.5,102C 142.022,104.226 141.355,106.392 140.5,108.5C 140.011,105.886 140.344,103.22 141.5,100.5 Z"/></g>
<g><path style="opacity:1" fill="#50504e" d="M 171.5,103.5 C 172.568,102.566 173.901,102.232 175.5,102.5C 175.784,104.415 175.451,106.081 174.5,107.5C 174.5,106.167 174.5,104.833 174.5,103.5C 173.5,103.5 172.5,103.5 171.5,103.5 Z"/></g>
<g><path style="opacity:1" fill="#585858" d="M 151.5,103.5 C 152.568,102.566 153.901,102.232 155.5,102.5C 155.5,104.5 155.5,106.5 155.5,108.5C 153.25,108.819 151.25,108.319 149.5,107C 150,106.5 150.5,106 151,105.5C 151.71,106.973 152.876,107.64 154.5,107.5C 154.5,106.167 154.5,104.833 154.5,103.5C 153.5,103.5 152.5,103.5 151.5,103.5 Z"/></g>
<g><path style="opacity:1" fill="#656565" d="M 171.5,103.5 C 170.014,106.371 171.014,107.705 174.5,107.5C 171.324,109.273 169.657,108.273 169.5,104.5C 170.167,104.167 170.833,103.833 171.5,103.5 Z"/></g>
<g><path style="opacity:1" fill="#646464" d="M 177.5,102.5 C 178.353,108.218 179.853,108.551 182,103.5C 182.448,107.799 180.615,109.132 176.5,107.5C 177.309,105.929 177.643,104.262 177.5,102.5 Z"/></g>
</svg>
